/* XPM */
static char *_5b218a83fe845ae84ab745a20c9c8bcz2cDxBvwpN1F1S7x[] = {
/* columns rows colors chars-per-pixel */
"50 50 21 1 ",
"  c None",
". c black",
"X c #181008",
"o c gray11",
"O c #271601",
"+ c #291209",
"@ c gray19",
"# c #35363B",
"$ c #5B1D00",
"% c #490011",
"& c #482800",
"* c #5B2815",
"= c #525460",
"- c #606060",
"; c #812A02",
": c #863C20",
"> c #9C2C3F",
", c #806030",
"< c #AA6A46",
"1 c #EB9361",
"2 c #9098A8",
/* pixels */
"                                                  ",
"                                                  ",
"                                                  ",
"                                                  ",
"                                                  ",
"                                                  ",
"                                                  ",
"                      ......                      ",
"                     .****++..                    ",
"              XXX   .**+****++.                   ",
"             X-X   .**+******+.                   ",
"            X@@X   .****:****++.                  ",
"             X@@X .*:***::****+.                  ",
"             X@@X .**+*+**+**+++.                 ",
"            X@X@@.****+<++<+*++*.                 ",
"             XX@@X++**11...+* +*:.                ",
"             X@XX@-+..111.2.*1+*:.                ",
"              XX&@@+&1 11> *+&+**.                ",
"              &&<&XX&1     1+&+*+.                ",
"              &<1 &1&&1   1<&  +.                 ",
"              &&<11o. &111&... +.                 ",
"              &X&<<ooo ....=#o..                  ",
"               &X&.o#=.oo.###o..                  ",
"                 ...o##.###ooo.                   ",
"                   .ooo##ooo.o.                   ",
"                    ..ooooo....                   ",
"                      ......oo.                   ",
"                      ..oo.ooo.                   ",
"                      ..oo.ooo.                   ",
"                      ..oo.oo.                    ",
"                      .OoOOOO.                    ",
"                     .O&,&O&O.                    ",
"                     .OOOOOOOO.                   ",
"                    .OO&&&&&&&.                   ",
"                    .O&&&O&&&&.                   ",
"                    .&&&&O&&&,&.                  ",
"                   .&,,&&.O&,,,.                  ",
"                   .,,&&. .&&,,.                  ",
"                  .&,,&.   .&,,,.                 ",
"                  .&,&&.   .&&,,.                 ",
"                  .,,&.     .&&&,.                ",
"                 .&,&.       .,&&,.               ",
"                 .&&&.        .&&&.               ",
"                 .&&.          .&O..              ",
"                .%.O.           O.%.              ",
"                .$%%.           .$$.              ",
"               .$%%.            .%%$.             ",
"              .%%%$.           .$%%%.             ",
"             .;$$$$.          .;$$$$.             ",
"             ......           .......             "
};
