/* XPM */
static char *result[] = {
/* columns rows colors chars-per-pixel */
"64 64 22 1 ",
"  c black",
". c #040102",
"X c #070505",
"o c #0C0705",
"O c #190F0F",
"+ c #1E120E",
"@ c #1F120E",
"# c #251B19",
"$ c #34230C",
"% c #42200F",
"& c #473730",
"* c #504027",
"= c #644926",
"- c #624135",
"; c #72634B",
": c #975B5A",
"> c #A98D7A",
", c #C0A57A",
"< c #D79993",
"1 c #E7BB94",
"2 c #9CF3D9",
"3 c None",
/* pixels */
"3333333333333333333333333333333333333333333333333333333333333333",
"3333333333333333333333333333333333333333333333333333333333333333",
"3333333333333333333333333333333333333333333333333333333333333333",
"3333333333333333333333333333333333333333333333333333333333333333",
"3333333333333333333333333333333333333333333333333333333333333333",
"3333333333333333333333333333333333333333333333333333333333333333",
"3333333333333333333333333333333333333333333333333333333333333333",
"3333333333333333333333333333333333333333333333333333333333333333",
"3333333333333333333333333333333333333333333333333333333333333333",
"3333333333333333333333333333333333333333333333333333333333333333",
"3333333333333333333333333333333333333333333333333333333333333333",
"3333333333333333333333333333333333333333333333333333333333333333",
"3333333333333333333333333333333333333333333333333333333333333333",
"3333333333333333333333333333333333333333333333333333333333333333",
"3333333333333333333333333333333333333333333333333333333333333333",
"3333333333333333333333333333333333333333333333333333333333333333",
"3333333333333333333333333333333333333333333333333333333333333333",
"3333333333333333333333333333333333333333333333333333333333333333",
"3333333333333333333333333333333333333333333333333333333333333333",
"3333333333333333333333333333333333333333333333333333333333333333",
"3333333333333333333333333333333333333333333333333333333333333333",
"3333333333333333333333333333333333333333333333333333333333333333",
"3333333333333333333333333333333333333333333333333333333333333333",
"333333333333333333333333333333333333333333333  XX 33333333333333",
"3333333333333333333333333333333333333333333333  o  3333333333333",
"33333333333333333333333333333333333333333     X Xoo. .3333333333",
"33333333333333333333333333333333333333333 &&&&&@#X#o+  333333333",
"333333333333333333333333333333333333333333 <:&@#&##+-#..     333",
"3333333333333333333333333333333333333333333 #<&@&&-:#% oo+o.o 33",
"3333333333333333333333333333333333333333333 #:&#&#+  2 +#-o-X.33",
"3333333333333333333333333333333333333333333 -&&&&&&-*:&###*-o 33",
"333333333333333333333333333333333333333     -&&&&&&&&-&--*&o 333",
"3333333333333333333333333333333333333  o&:-#&&&&&&&::-++ooo 3333",
"333333333333333333333333333333333333 ::##---&&-------###+++ 3333",
"33333333333333333333333333333333333 o&-:&---&&&&&--&#&o     3333",
"3333333333333333333333333333333333 ###--&---&--&-#&&&o  33333333",
"33333333333333333333333333333333  o-#&--&---&--##&#&#   33333333",
"3333333333333333333333333333333 #----&------&--&&##oo  333333333",
"33333333333333333333333333333  o--------&--&&&&&-#&#o 3333333333",
"33333333333333333333         oo&--------&&&&&&&--#&o  3333333333",
"33333333333333333   Xo+++X#o#&&&--::-----&&&&#&+&+-#  3333333333",
"333333333333333  o+#&&&&&&&&&&&--::-------&&&&&&+&&# 33333333333",
"33333333333333Xo&--:::-&&&&&&-------#-----#-&#&+-#&o 33333333333",
"3333333333333 +&-------&&&&&&---&#++#-----####&+-o- 333333333333",
"333333333333 X#-------&&&&&&------&+++------#&+-#&o3333333333333",
"33333333333 X+&---------&&--------&&+o---:--##+-o- 3333333333333",
"3333333333  X#&-------------------&&#o--:::-&++#Xo 3333333333333",
"3333333333 +o&&------------------&&&#o--:::-#o+XX 33333333333333",
"333333333 ++o&&--------&----&---&&&&+o--:::&+XXX 333333333333333",
"333333333  &+#&--------&--&&&--&&&##o+---::#oXX 3333333333333333",
"333333333 o&++&&-::----&&&##-+##   oo+---:-X XX 3333333333333333",
"33333333 +## X#&-::::-&&ooo&&     3 XX---&o oo 33333333333333333",
"33333333 &-   #&--:::-#oooXXo33333333X #-+Xoo  33333333333333333",
"33333333 -& 3 X#--::-#o##+XX 333333333 #-- o+ 333333333333333333",
"3333333 o-# 33 X#-:--###oXX 3333333333 +-- ++ 333333333333333333",
"3   33  --- 333X#&&--#&oo 333333333333 $;,$O= 333333333333333333",
"33 X  oo&- 33  +#&&:&# ++ 3333333333333 =;=O;O 33333333333333333",
"33 X#&-&-  3 +-+--:o o+o 33333333333333 $=; ;; 33333333333333333",
"333  +#-  33 11>,X  oX X333333333333333  ;;  ;; 3333333333333333",
"3333    3333 O1>$ OO$$     3333333333333 ;;; ;; 3333333333333333",
"33333333333333 O==  O;=O=== 333333333333 =;;$ ;= 333333333333333",
"333333333333333  $;;;= =;;;; 33333333333 =>,,> ;; 33333333333333",
"3333333333333333 $>1O1  $>O> 333333333333 ,;,; ;; 33333333333333",
"33333333333333333            333333333333         33333333333333"
};
