/* XPM */
static char *result[] = {
/* columns rows colors chars-per-pixel */
"64 64 226 2 ",
"   c #151515",
".  c #191714",
"X  c #1B1815",
"o  c #15161F",
"O  c #1A171F",
"+  c #16191F",
"@  c #1C1B1F",
"#  c #201D1F",
"$  c #1F201F",
"%  c #20201F",
"&  c #29211A",
"*  c #141720",
"=  c #1A1720",
"-  c #171A22",
";  c #1B1C22",
":  c #211D21",
">  c #281D20",
",  c #1D2223",
"<  c #1E222B",
"1  c #222221",
"2  c #2B2422",
"3  c #2C2A22",
"4  c #24242A",
"5  c #292928",
"6  c #332622",
"7  c #352C24",
"8  c #3B2C23",
"9  c #372C2C",
"0  c #2B3325",
"q  c #383624",
"w  c #262636",
"e  c #2F2F35",
"r  c #292939",
"t  c #2A2C3C",
"y  c #39353C",
"u  c #42251F",
"i  c #442A22",
"p  c #432A25",
"a  c #4B2A23",
"s  c #582F24",
"d  c #473526",
"f  c #553727",
"g  c #463A3C",
"h  c #523636",
"j  c #583B37",
"k  c #683726",
"l  c #76392A",
"z  c #7E3A31",
"x  c #394328",
"c  c #3C4529",
"v  c #554119",
"b  c #6A501A",
"n  c #484929",
"m  c #584728",
"M  c #58592D",
"N  c #524A3B",
"B  c #64482C",
"V  c #77472A",
"C  c #6B5528",
"Z  c #615B29",
"A  c #755A2B",
"S  c #724F33",
"D  c #6F722F",
"F  c #6A6531",
"G  c #797733",
"H  c #292D43",
"J  c #2A3247",
"K  c #2E3843",
"L  c #333543",
"P  c #343B4A",
"I  c #323D52",
"U  c #3A4759",
"Y  c #4C454A",
"T  c #574B49",
"R  c #545B4B",
"E  c #404A59",
"W  c #775744",
"Q  c #5A6655",
"!  c #706947",
"~  c #6D746F",
"^  c #86392B",
"/  c #913C2F",
"(  c #BC3F34",
")  c #8D462F",
"_  c #865B2A",
"`  c #97582E",
"'  c #9D4831",
"]  c #895A37",
"[  c #995836",
"{  c #A7532F",
"}  c #A94930",
"|  c #B54733",
" . c #BE4134",
".. c #AE5330",
"X. c #86662B",
"o. c #886833",
"O. c #967332",
"+. c #A3642F",
"@. c #AB6737",
"#. c #B76936",
"$. c #A67635",
"%. c #A27E34",
"&. c #BA7835",
"*. c #C14334",
"=. c #C54B35",
"-. c #C94A35",
";. c #C55535",
":. c #CE5336",
">. c #D55B36",
",. c #D65A36",
"<. c #C76935",
"1. c #D76436",
"2. c #C27836",
"3. c #DA783A",
"4. c #E26C37",
"5. c #E16C38",
"6. c #E47439",
"7. c #E87539",
"8. c #EC7D3A",
"9. c #F07E3A",
"0. c #865A41",
"q. c #8F674F",
"w. c #8A6857",
"e. c #B06F46",
"r. c #8F8A34",
"t. c #998737",
"y. c #959739",
"u. c #A98338",
"i. c #B78333",
"p. c #A99437",
"a. c #BA9B3C",
"s. c #9BA139",
"d. c #ADA73A",
"f. c #C48B37",
"g. c #D3843F",
"h. c #D98939",
"j. c #C99B39",
"k. c #D9973C",
"l. c #ED843C",
"z. c #E58B3A",
"x. c #EC8A3C",
"c. c #F1853B",
"v. c #F38C3D",
"b. c #E7983D",
"n. c #F3923E",
"m. c #F39A3D",
"M. c #CCA53C",
"N. c #DBAA3C",
"B. c #CCB53B",
"V. c #E8A33C",
"C. c #F0A13E",
"Z. c #F4A93E",
"A. c #E8B43E",
"S. c #F9D73F",
"D. c #FFF73F",
"F. c #83906B",
"G. c #BB886A",
"H. c #AA8F7A",
"J. c #A0AA6E",
"K. c #D68A40",
"L. c #D99857",
"P. c #EA9844",
"I. c #F59540",
"U. c #F69A41",
"Y. c #F99D41",
"T. c #D5AA41",
"R. c #D3B843",
"E. c #D8B254",
"W. c #F6A142",
"Q. c #F9A343",
"!. c #F5A847",
"~. c #FAAB45",
"^. c #E6BC45",
"/. c #EAB944",
"(. c #FCB245",
"). c #F4B843",
"_. c #FCBC45",
"`. c #FEB649",
"'. c #FEBA49",
"]. c #F2A95B",
"[. c #C88C68",
"{. c #D99764",
"}. c #C6987A",
"|. c #DA9F72",
" X c #D6AF73",
".X c #B8C056",
"XX c #B9C37F",
"oX c #C8CC4C",
"OX c #D5C441",
"+X c #E8C543",
"@X c #FDC446",
"#X c #FDCC45",
"$X c #FEC248",
"%X c #FFC848",
"&X c #FED344",
"*X c #FFDC43",
"=X c #EDC954",
"-X c #DFE053",
";X c #FEE342",
":X c #FFEB42",
">X c #FDE64A",
",X c #FFF146",
"<X c #F1EE58",
"1X c #F9E95A",
"2X c #D5DC6B",
"3X c #E1DF6B",
"4X c #F9F267",
"5X c #6A7A84",
"6X c #7B8388",
"7X c #8E918C",
"8X c #AC9281",
"9X c #B79A86",
"0X c #9EAF93",
"qX c #B8AE93",
"wX c #CA9D81",
"eX c #D6AE90",
"rX c #D2AF96",
"tX c #C7B59B",
"yX c #E1B99D",
"uX c #C4BBAC",
"iX c #BCC793",
"pX c #BDC0B1",
"aX c #D3C4B1",
"sX c #E0C7AF",
"dX c #E5D4A5",
"fX c #F4E1A4",
/* pixels */
"# # # # # # # # # # O # # # # # # # # # # # # # # # # # % # % % % % % # % % # % # % # # % % % % % % % $ 1 % % # % % % $ $ $ % $ ",
"# # # # O > > O # O > # # # # # # # # : : # # # # # # # # # % @ # % # % $ # # % % % % % # % @ % % % 1 1 1 : % % % $ $ $ 0 G d.v ",
": : O # # # # # # > O # # # # # # # : : : # # # # # # # # # # % % % # % # % % @ % # % % % $ # % $ $ 1 e 3 1 % 1 % $ 1 M d.S.S.b ",
": : > > # # O # # # # # # O # # # # # # # # # # # # # # % # # # # % % # % % % % % % @ # % # % % # $ 1 2 1 % % ; @ q r./.Z.Z.a.& ",
": : 9 > > : O # : : w 9 # # > O # # # # # : > # # # % % # # # # # % @ 1 1 1 # % % # % % % % # % % % % % % % : 1 n a.~.U.m.A.b X ",
": : : > : : # : : : 6 9 > # # # # # # # # : > # % # @ # % # # % # # % 4 5 1 % # # % $ # % @ % % @ % % % % $ : F ^.~.n.m.(.%.% X ",
"O > : O = : O O : O : : O # # > : : # # # # # # # # # # # # % # % # # 1 : % % # % # # % % # # % % # % % @ 0 t./.(.Y.m.(.M.8 : X ",
": O : : : : > : : > # # # : : e : O # # # # O > # # # # # # # # # # % # # % # % % # % % # % % # % % % @ n a.@X'.~.Q.(.A.Z # % X ",
"O > > # O # # O # O O # # O > > # O # # # # # # # # # # # # # # # # # % # # % % % # % % % # % % $ @ = M R.@X@X`.`.`.A.X.% % % & ",
"> O O O # O > > # # # # > # # = # # # # # # # # # # # # # # # # % # # # # % # # # % % # % % # $ @ 5 F T.#X@X'.`.`._.%.& % % % % ",
"O # # > > O # # O = # O # O # # # # # O > # # # # # @ # # # # # # # @ % # # % # % @ # % % % ; ; n u.).&X&X`.`.`.'.j.6 $ % % % $ ",
"# O O O > # O # > > # # O # # # O # # # O # # # # # @ 4 9 # # # % # % # # % @ # % % % # @ ; q %.k.U.'.%X'.`.`.'.k.n @ % % % % X ",
"> # > O > O O O O > > # # # # O # # # # # # # # # # @ : : : # # # # # # # # $ $ # # $ @ q G j.I.I.~.`.`.`.`.'.P.f @ % % 1 1 % X ",
"O O # O # O # > # # O # # O # # # O # # # # @ # # # @ # # ; @ @ @ @ @ X @ # @ @ # @ 2 M B.).I.I.~.`.~.'.`.`.).X.$ $ # $ , # % X ",
"> O > O > O > # O # O O O # > O # # # # # O # # @ @ # 1 & 7 g R Z M Z M Z n 8 3 3 n r.+X(.v.I.~.`.~.`.`.'.Z.X.% $ $ # % % % % X ",
"O X > O # O O O O > > # # # O # # # O # # # # @ 1 2 n %.a.M.E.=X@X#XS.@X@XA.N.M.M./.@X(.U.U.~.(.).#X'.`.Q._ & $ % @ % % % % 1 X ",
"> O O > O O O # : : O # # O # # > O O # # O : 6 o.&.3.6.6.6.6.6.8.v.v.I.U.~.(.~.~.Q.U.U.U.~.(._.&X$X`.~.&.& $ $ $ $ $ % # % % X ",
"> O > O O > O > : = : O O # O # O # # : : 8 f #.:.:.-.=.=.:.>.>.>.4.7.l.c.n.n.U.U.U.!.~.~._.A.;X@X`.C.f.d @ $ $ $ $ % % $ % % . ",
"O O O O X > O # : : : : # > O # # O O > B { =.*.( ( ( (  .>.1.7.l.m.b.x.l.8.8.l.v.I.U.U.Y._.S.&X'.C.2.a @ % $ $ $ $ $ @ @ $ % X ",
"O > # > O O O > : = > : O # # O # > # B <.*.( ( ( ( *.;.<.` A ] G o.o.o.%.j.k.m.x.8.l.n.Z.;X&X'.m.<.d % % % @ % $ @ $ $ % $ % % ",
"# O > O > > O O O > y > O # # # # : B <.*.( ( ( ( =.{ B 8 : O = + = - @ 1 3 c F p.N.b.Z.:X*X'.n.<.i @ $ $ $ @ % $ $ @ $ % @ % % ",
"> O O O O O > # O > w > # # O # @ y K.-. . . . .} V 6 = 2 a S 0.S ] s 6 : ; ; # 2 c d.D.:X@XY.h.a @ % % % @ $ $ @ % % $ % $ 1 X ",
"O O O > # O O O O # O # O # O # : o.,.( ( *.=...a = 6 ] [.}.eXuXaXeX}.{.@.p : ; ; Q -X:X#Xm.z.A % # % @ # % % % % % % % % @ , . ",
"O > O > O O > O O > O O # O # = M 3.*.( ( *...a = d [.yX7XT L L K y U 6XtXL.l ; Q -X:X&XC.m.X.$ % # # # % @ @ % @ $ @ % % $ # . ",
"O O O X > O > > O > O O : : O ; O.1. . . .} a O d }.9XY w w w w w w w w P 7X|.w.2X,X>XC.m.Z.V @ @ # @ % @ % @ $ % % $ $ @ $ @ X ",
"O > O > O O O O O O > X = : O 7 K.:. . .=.) @ d }.8Xy w w r w w w w w w w H 7XfX,X*XQ.n.Z.n.l ; % # % % % # % @ $ $ % % % % % K ",
"O > O > O > > O O > O O : = = M z.-.*. .} 6 > [.9Xy w w w w w w w w w w w H 0X4XS.Z.z.a.n.I.] ; $ @ $ @ @ % $ $ @ % # @ $ , @ U ",
"O O O O O O O O O O O > = = ; r.8.:.*.;.l o W yXT w w w w r w w w w w w < R <X;XZ.m._ m x.I.&.2 @ $ @ $ % @ @ $ % @ $ $ @ , , E ",
"O O O O O > O > O O O # O > ; p.8.>.-.;.a : G.8Xw w w w w w w w w w e w U oX>X~.`.].i q <.c.#.& @ % @ % @ $ @ @ $ @ $ $ $ @ $ t ",
"O > > O O O O O O > O O O O J E.7.1.:.<.8 7 wXT w w w w w w w r w w w E iX,X_.P.w.G.s % @.c...# % @ $ @ $ $ $ $ @ $ @ @ $ $ $ X ",
"O X > O O O O O O O O > O O g =Xc.4.1.{ # j eXg w w w w r w r w w w J 0X<X&X3.j K qX` % @.7.<.8 @ @ @ % $ @ $ $ $ $ $ $ $ $ $ . ",
"O O O O O > O > O > O O # O n ^.c.4.8.+.O T sXg w w w w w w w w w t F.<X&Xg.h w J pX[ $ #.4.z.m @ % @ @ @ $ @ @ $ @ @ $ @ @ $ . ",
"O > O O O # O O # O O # @ O c +Xc.7.8.+.# T sXg w w w w w w w w w M =X#Xg.h w w J pX[ , @.1.h.m + # @ % @ @ $ $ @ $ $ @ $ $ @ $ ",
"O O O O O O O O O # O O O O c +Xv.8.9.$.O N rXg w w w w w w w H R R.@Xg.h w w w P qX[ , [ :.<.i @ @ @ @ $ ; @ $ $ @ $ + @ $ + U ",
"O O O > > O O > O # O # O O c ^.n.c.c.+.O 8 9XT w w w w w w P F.-X_.g.h w w w w I G.k : ' :.} # @ $ $ @ $ @ @ $ $ @ $ $ @ @ X U ",
"O O O O O O O O O O O # O O c ^.n.c.c.{ O > G.H.w w w w w E iX1X'.g.h w w w w w 5X{.i 9 (  .{ > @ @ $ @ @ @ $ + @ $ @ $ $ , , U ",
"O > O O > O O O O O O O O O c ^.Q.m.c.2.& @ W yXY w w w U XX1X'.K.h w w w w w P tX#.: k  . .) # $ 5 1 ; @ @ @ $ @ @ $ $ $ $ @ < ",
"O O O O O O O O O # # O @ = c ^.Y.Q.v.V.i @ 7 [.8Xe w g .X>X_.h.h w r w w w r 6X{.s ; )  .=.k @ , , : @ @ $ $ @ $ $ + @ + $ $ $ ",
"O O O O O O # O O O O O = = x ^.I.Q.m.b.f @ = d wX8X~ OX;X~.g.h w w r w r H 6X XV # p |  .} 8 @ ; : : ; $ $ @ @ @ @ @ $ @ $ $ + ",
"O O O O O O O O O O O O = * x ^.Y.Q.n.~._ = = o T dX<X:X~.K.j w w w w w L 5X Xl ; : ^ ( *.^ @ @ ; 5 1 ; @ @ @ $ + $ $ + $ @ , . ",
"O O O O O O O O O O O = O O c +XY.Q.Q.Q.i.# 4 R J.1X&X(.].W t t t H P ~ tX{.V : : z ( ( | s = @ @ , @ $ + $ $ + $ @ + $ @ $ $   ",
"O O O O O O O O @ O O O O O G `.U.I.Q.Y.V.g 7X3X>X@X~.K.{.wXqXuXuXwX9X|.e.s ; : z ( ( ( z 5 ; ; @ @ @ @ @ @ @ $ + $ $ @ $ + $   ",
"O O O O O O O O O O O < 4 n OX(.n.I.Q.Y.Z.XX4X>X@X~.h.f 6 f 0.q.q.] k p : ; p ^ ( ( ( ^ 2 ; @ + + $ $ + $ + + @ $ $ + $ + $ ; . ",
"O > O O O O O O O O O - , s.$XU.U.U.Q.Q.S.,X>X@X~.).&.f 7 ; : : : ; : 9 a ^ (  .( ( / u + @ @ @ @ + @ + $ @ $ @ + $ $ + $ @ @ + ",
"O O O O = = O O O O O o n +Xm.x.U.m.~.#XD.#X_.~.(.~.v.x.<.{ @.@.#...' |  . . . .*.^ > @ @ @ @ @ @ @ @ $ @ $ + + + @ + $ + + $   ",
"O O O O O O O O + O O 3 d.U.v.I.U.~.&X:X#X~.Z.L.=XQ.Q.m.c.c.8.7.5.5.>.-.*. .| ' s # + @ @ + + @ @ + @ + @ + @ $ $ $ + @ $ $ $   ",
"O o O O O O = O O O * D ).l.n.U.~.&X:X%X~.~.%.T ! A S $.2.&.h.l.3.3.1.} ' k f 1 @ @ @ + + + @ @ @ + + @ + $ $ + @ + + $ $ + + . ",
"o O O O O O O O + + 4 a.n.8.n.~.#X*X@X~.Z.u.& @ o o - : : : n m j m d 1 1 + = = @ @ O @ @ @ + @ + $ + @ $ + + $ + $ $ + + $ $ + ",
"O O o O O o O O o * G Y.l.I.!.@X&X(.Q.P.V : o @ O O o @ o O o o o o o o o @ o @ + @ @ + + $ $ + @ + + @ + $ + $ + $ $ + - $ + , ",
"O o o O O o o O = n K.U.I.(.'.$X~.m.b.C O + O + o @ O o @ = @ o @ o @ @ @ + @ o @ + + + + + + $ + $ + @ @ + @ @ + + + $ $ + $ + ",
"O o o O o O = * n T.U.Y.(.@X'.~.v.b.C @ o O @ O + O @ o O + o @ o @ @ + o @ + @ + @ $ +   , + + + + $ + $ + + + + $ + + $ + +   ",
"o o O o O o * 1 u.Y.!.`.'.(.~.v.h.C o o O o o o @ o @ o o @ o o O * o @ + o @ o @ + + + + + + $ @ + $ + + + $ + $ + + $ + + ,   ",
"o O o O o o , t.U.Y.`.`.W.U.c.&.8 O + O @ o O o o o @ o @ o @ o @ @ o @ o + @ @ + @ + + + + + + + @ @ + $ + + $ + $ $ + $ $ +   ",
"o o o o O = t.n.x.Q.`.Q.I.v.&.8 o O o o o O o o O o o o + o + O o o o o @ + o + + + @ + + + $ + + + + + $ + + $ + + + + + + ,   ",
"o o O o * M z.8.I.~.Q.m.z.` 7 o O o o @ o o o @ o + * @ O + @ + @ o + @ o @ + @ + @ + + + + + + + + $ + + + $ + + $ + $ + + -   ",
"o o o * g h.8.n.U.Y.m.m._ O o o o o o o o o o o O o O o + o o o o + o o + o + + + + + + + , + + @ + + + + + + + + + + + $ $ +   ",
"* * * 0 u.v.I.U.Y.(.k.A @ o o O o o o o o o o + + + o o o o + o + o @ o o o - + + + + + + + + + + + + + + + , + + + + $ + + +   ",
"* * , p.v.I.v.I.(.j.d o o o o o o o o o o o o + o o + o o o + + + + + o + + + O + + + + + + + + + + + + + + + + + + + - - + ,   ",
"* * D P.I.v.v.).%.2 * o o o o o o * * o o o + o + + o + + o o + o o + + + o o + + + + + + + + + + , + , + + + + + + + - + + +   ",
"* x T.v.v.m.N.C ; * * * o o o o o o o o o o o o o o o + o o o * o + + o + + o + * + + + + + + + +   + + + + - - $ + + + , + +   ",
"* y.Z.~.!.p.q o * o o o o o o * o * o o * o o o o o o o o + * + o o + o o o + o + + + + + + + + + + + + + + + - + + + + + , +   ",
"0 oX#XN.A =   o * o o * o o * * o o * * * * * * o o o o * o o o + o * - + + o o + + + * + + + + + + + + + + + + + + - + + + +   ",
"x B.t.d * * * * * * * * o * * * o o o o * * o o * * * * * * * * * * * * o o o o + + + + + + + + + + + + + + + - + + + + + + + + ",
", 0 + + - - * * * * - - - * * o - - - - - o - - - - , + - - - - , - ; ; - - - , + , - - , - - , - , - , - , - - , , - , - , - , "
};
