/* XPM */
static char *daa2967e2c78408b829c47ba6f79ddc6jBXf6tGqjDgjT4Bt[] = {
/* columns rows colors chars-per-pixel */
"50 50 23 1 ",
"  c None",
". c black",
"X c #181008",
"o c gray11",
"O c #271601",
"+ c #291209",
"@ c gray19",
"# c #35363B",
"$ c #5B1D00",
"% c #490011",
"& c #482800",
"* c #5B2815",
"= c #525460",
"- c #606060",
"; c #812A02",
": c #863C20",
"> c #9C2C3F",
", c #806030",
"< c #AA6A46",
"1 c #EB9361",
"2 c #9098A8",
"3 c #F5B997",
"4 c white",
/* pixels */
"                                                  ",
"                                                  ",
"                                                  ",
"                                                  ",
"                                                  ",
"                                                  ",
"                                                  ",
"                      ......                      ",
"                    ..++****.                     ",
"                   .++****+**.   XXX              ",
"                   .+******+**.   X-X             ",
"                  .++****:****.   X@@X            ",
"                  .+****::***:*. X@@X             ",
"                 .+++**+**+*+**. X@@X             ",
"                 .*++*+<++<+****.@@X@X            ",
"                .:*+3*+...11**++X@@XX             ",
"                .:*+1*.2.111..+-@XX@X             ",
"                .**+&+*4>1131&+@@&XX              ",
"                .+*+&+1333331&XX&<&&              ",
"                 .+  &<13331&&1&31<&              ",
"                 .+ ...&111& .o11<&&              ",
"                  ..o#=.... ooo<<&X&              ",
"                  ..o###.oo.=#o.&X&               ",
"                   .ooo###.##o...                 ",
"                   .o.ooo##ooo.                   ",
"                   ....ooooo..                    ",
"                   .oo......                      ",
"                   .ooo.oo..                      ",
"                   .ooo.oo..                      ",
"                    .oo.oo..                      ",
"                    .OOOOoO.                      ",
"                    .O&O&,&O.                     ",
"                   .OOOOOOOO.                     ",
"                   .&&&&&&&OO.                    ",
"                   .&&&&O&&&O.                    ",
"                  .&,&&&O&&&&.                    ",
"                  .,,,&O.&&,,&.                   ",
"                  .,,&&. .&&,,.                   ",
"                 .,,,&.   .&,,&.                  ",
"                 .,,&&.   .&&,&.                  ",
"                .,&&&.     .&,,.                  ",
"               .,&&,.       .&,&.                 ",
"               .&&&.        .&&&.                 ",
"              ..O&.          .&&.                 ",
"              .%.O           .O.%.                ",
"              .$$.           .%%$.                ",
"             .$%%.            .%%$.               ",
"             .%%%$.           .$%%%.              ",
"             .$$$$;.          .$$$$;.             ",
"             .......           ......             "
};
