/* XPM */
static char *result[] = {
/* columns rows colors chars-per-pixel */
"64 64 44 1 ",
"  c #030202",
". c #080706",
"X c #090807",
"o c #0D0C0C",
"O c #100F0E",
"+ c #12100F",
"@ c #141211",
"# c #191716",
"$ c #1A1916",
"% c #1D1C1A",
"& c #201E1C",
"* c #22211E",
"= c #262623",
"- c #282624",
"; c #272823",
": c #292926",
"> c #2C2C29",
", c #2F302D",
"< c #31312E",
"1 c #353532",
"2 c #373834",
"3 c #393936",
"4 c #3D3D3A",
"5 c #3F403D",
"6 c #41413E",
"7 c #444442",
"8 c #474846",
"9 c #494946",
"0 c #4C4C49",
"q c #525250",
"w c gray39",
"e c #6D6D6C",
"r c #70706F",
"t c #6F7070",
"y c #737373",
"u c #7C7C7C",
"i c #838383",
"p c #9C9C9C",
"a c #A2A2A2",
"s c #ACACAC",
"d c #B5B5B5",
"f c #BBBBBB",
"g c #C3C3C3",
"h c #CACACA",
/* pixels */
"ppppppppppppppaaaaaaappaaaaaaaaapppaaaassaaaaaaaaaaaaasasssssssw",
"aiyuuuyuuyuuuuuuuiuuuuuiuuuiuuuuuuuuuuuuuuuuuuuuuuuuuuuuuuuuyuge",
"pe*>978778787898606666069066<*%$=<0000000000000000000000001= ode",
"ar>1767544545454666666666666<*++>1999966776777677767777688<= oft",
"ay77333<*::*===**;;*:*:***15>*  35446<->:::::::-::::::::351: oft",
"sy77111>:*::==--:*;;*:*;::<2*%  34222<->:>::::-:::::::::13-* ofy",
"sy74===***:*::--;::*>:;;**:;+.  33->>;>::::::*=:=**:::::::o  ofy",
"sr74====**:***:*:;*::*:*::;:O.  33-::>->:>:::=-::==::>:>:>o. oft",
"sy65=;;;>;;*&*;;-&*:;;;-;;-;o   33>:>::::::::>:>:>:::>:::>O  oft",
"sr75=;;-;;>**;;;-***;;;;;*-;o   33::::>:-:>:>::::::>:::::>+. oft",
"se75----*;*;>>;*=-;;;-*;::--O   32>>>>:-*:::::::>::::>:>>>+  Oft",
"se82XOo$>;;;**;>;=;;;;;:%oOo..  4<o+o%>-::::>::::::::>%o++XX oft",
"se81   #>*-->*;;--;;--=># .  .  5< . #,>:>>>>>>>>>>>:,$ .  . oft",
"se,= . X+OOo++++oo+OOOooX....   ++ ..X+oOOOoOO+o@oO+OOo..... oft",
"se*% ..       ..     .    .  .  . ...     . .     .    ....  oft",
"deX.                                                         oft",
"deoX.   .   .      .  .                            .     . . oft",
"se>2677767777:%  O%433333343443343334343424+   $:76677777775 oft",
"dr46677776788<=  %:444433333333333333333246%X  :188876777676 oft",
"srq0111111<684<  364541-:::::::::::::::::241:  788885<11111< oft",
"syq0111121<471>  333331-:::>:::::::::>:::12:%  7766641111121 oft",
"syq01111<2212-&  33::::::::::>:>**::::>:::>o   761111111111> Xft",
"dtq01<>1<2112-&  33::>::-=:>:>::-:>:---:::>o.  67111111,1111 oft",
"syq011:,21122-&  43:::::-*::::::::::**%->>>+   7711111,-1111 oft",
"syq011,<11111-*  43::::>:=:::>:>:::::==:::>+.  77111111,1111 oft",
"syq0111111112-*  33:>>>:::::::::>::::>::>:>+   7711111111111 Xft",
"srq011112,---=&  4<o+o%>:>:::::::::>::>%oOo..  74%%#-211111< oft",
"syqq11222>*===*  4< . $>:>>>>>>>>>>>>:,# .. .  83O+O=3121121 oft",
"dr43-:::---====  @+...X++ooOo+OO++++O@@o.....  %%@@@#%%%%%%% ofy",
"dr,>&*&&******&    .... ...  .           ...   o+@+@+o+OOOOo Xft",
"seX.                                                         oft",
"deXX                                                         oft",
"dt=>323333333333333333333333&+  o%111131221111111112112112*+ ofr",
"dt>2545333333333333333313345=#  %-323111221111251111221123*$ Ofr",
"st884551::::::::::::::::::35<:  23333,==*:;***:**:**;;>*23>* ofr",
"dt882231:::>:::>::::::::::13=%  13111>=-;;;;*:*::*::*>*;>2** ofr",
"dt07:::::=&:::>:>::>:**&=:::o   11==---=::;::****::;;:;;*;O  ofy",
"sy07::::::=::::::::::-==:::>O   11==--==*;*:***-::*;***;--O  Xft",
"dy87::::::::::::>::>:>:>:::>O.  11====-=:;:;::;-*:;:;**>-;o. oft",
"st07::>:>::::--:::::>::>::>>o   11======:**;*;;-:**:;**;;;o  oft",
"dy07->>>:::::==::::::::::>>>@   11==:;===&%=;;;-****;;-:;>o  ofr",
"sr04OOO%>::>:::::>:::==>$o@O..  3,oOo$:=;=*=;*;;;*;-;-$XO+.. oft",
"sr04 . #>>>>:>>>>:,>:=:,#   ..  3,   #>-;->;-;--::-;;># .  . oft",
"sr<- . o+OOo+o@o++o+oooOo.....  ++ ..XooOoOOoOOoOOOooOX....  oft",
"se=%.. .  .     . .    . ... .     ..    .      .       .  . ofy",
"aeX.                                                         Xft",
"aeX. .   ..                                         .  .  .  oft",
"ae=>333333334%@  $:775776777777677777777677:%  O%43333333331 ofy",
"ae<1333333345=$  :18887766777777777777777781-  %:54433333331 ofy",
"ae07::::::=36<:  7888841111111<1<11<<1<116831  354461::::::= ofy",
"pe07::::=::13-% .786673<1<11111121112<11147<:  33333<::::::= ofy",
"ae06:::=&=:::o   57<11<:-><1111112122<-<212$o .33;:::>::::=& ofy",
"ae06->==-:>:>O.  771111<<<111121<<21<<<<111%+  33::>:=:::::= ofy",
"ae08>-*=>:::>O   771111113211111-,112122111%o  33::>-%-::::: ofy",
"ae06;:=;::>:>O   771111111<<1111<<111111112%o  33::::=:::>:: ofy",
"ae06:>>::>>>>o  .671122111>><11121111111222%@  33:>>:>:::::: ofy",
"ae07:>::>%o+OX. .74$%%:121<<11111111111-#%%@+  4<ooo%>:::>>: ofy",
"se07:>>:>$  . .  83o+o=3211221211211113-o@+@+  4< . #,>>>>>> ofy",
"se1:O@oo@X...    %$@@@#%%%%%%%%%&&&&&&&#+@@@+  @@...o+oooo@o ofy",
"se-%. . .......  o@@@@@+OO+++O@oOOoOOOOO@@@@@    .... .  . . ofy",
"st                                                           oft",
"syXXooXoXoooXoXXooXoXooooooXooXoXoXoXooXooXoXoooXoXXooooooooo#fy",
"shgddfdddddddddfdfdddddddddddfdddddfdddddfddddddfdddddddddddddgy",
"yuuuyuuuyuuyuuyuyyuyuyyuyuyyyyuyuyyuyuyyyyuyuyyuyyyuyyuyuyyyuyyw"
};
